<?xml version="1.0" encoding="utf-8"?>
<!-- Generator: Adobe Illustrator 15.1.0, SVG Export Plug-In . SVG Version: 6.00 Build 0)  -->
<!DOCTYPE svg PUBLIC "-//W3C//DTD SVG 1.1//EN" "http://www.w3.org/Graphics/SVG/1.1/DTD/svg11.dtd">
<svg version="1.1" id="Capa_1" xmlns="http://www.w3.org/2000/svg" xmlns:xlink="http://www.w3.org/1999/xlink" x="0px" y="0px"
	 width="992.131px" height="992.131px" viewBox="0 0 992.131 992.131" enable-background="new 0 0 992.131 992.131"
	 xml:space="preserve">
<g>
	<path fill="#040505" d="M797.157,290.821c-0.38-0.563-0.654-1.204-0.925-1.824c-0.097-0.223-0.188-0.437-0.281-0.638
		c-0.387-1.792-1.562-5.554-6.333-7.14c-0.86-0.286-1.368-0.529-2.17-1.056c-1.107-1.007-2.488-1.943-3.711-2.749
		c-0.246-0.165-0.511-0.297-0.785-0.399c-1.463-0.548-2.766-1.977-3.541-2.827c-0.063-0.07-0.129-0.143-0.197-0.216
		c-0.622-1.356-1.99-2.3-3.58-2.3h-0.773c1.176-2.356,1.25-5.053,0.188-7.712c-0.061-0.15-0.128-0.297-0.209-0.438
		c-0.195-0.36-0.344-0.66-0.459-0.907c3.653-2.599,6.306-4.832,7.916-6.663c0.887-0.534,1.594-1.341,1.996-2.301
		c0.254-0.333,0.503-0.663,0.753-0.988c2.541-3.323,4.732-6.191,4.732-9.31c0-3.155-0.459-9.366-0.932-12.269
		c-0.078-0.381-0.076-0.521-0.078-0.521c0.07-0.275,0.618-1.13,0.989-1.697c2.471-2.587,3.824-5.564,3.824-8.422
		c0-0.415-0.065-0.828-0.192-1.223c-0.468-1.428-1.107-2.962-2.637-4.518c-0.136-0.142-0.287-0.272-0.445-0.391
		c-0.326-0.247-0.529-0.989-0.529-1.942v-0.846c0-0.366-0.051-0.728-0.153-1.078c-0.171-0.604-0.381-1.372-0.612-2.217
		c-1.692-6.192-2.449-8.624-3.322-9.93c-0.044-0.067-0.092-0.13-0.139-0.194c-0.219-0.43-0.709-1.652-1.004-2.781
		c-0.266-1.112-0.646-2.12-1.011-3.095c-0.278-0.741-0.539-1.442-0.701-2.061c-0.138-0.537-0.391-1.04-0.737-1.474
		c-0.052-0.582-0.233-1.149-0.533-1.657c-1.357-2.296-1.686-3.891-1.641-4.371c1.113-4.359-1.028-9.744-2.137-12.106
		c-0.09-0.583-0.228-1.073-0.325-1.414l-0.028-0.117c-0.045-0.385-0.151-0.76-0.311-1.118c-0.369-0.829-1.439-3.458-1.801-5.168
		c-0.063-2.242-0.674-4.163-1.905-6.014c-0.158-0.236-0.339-0.454-0.543-0.652l-0.44-0.426c-0.732-0.71-1.715-1.105-2.734-1.105
		h-1.697c-2.404,0-4.398,0.887-5.659,2.445c-0.362,0.261-0.683,0.58-0.945,0.946h-1.034c-0.812,0-2.136,0-2.839-0.175
		c-0.563-0.248-1.068-0.387-1.423-0.482l-0.018-0.008c-0.404-0.253-0.855-0.434-1.327-0.526c-1.794-0.357-2.5-0.587-2.769-0.728
		c-0.295-0.287-0.604-0.563-0.923-0.823c0.675-0.436,1.279-0.968,1.875-1.571c0.702-0.696,1.085-1.265,1.42-1.815h5.567
		c0.74,0,1.421-0.125,2.084-0.248c0.483-0.087,0.975-0.18,1.308-0.18c0.095,0,0.283,0,0.337,0c0.011,0,0.016,0,0.018,0
		c0.549,0.278,1.16,0.427,1.786,0.427h1.253c2.175,0,3.937-1.762,3.937-3.938v-1.274c0-0.069-0.407-7.737-0.407-7.737v-0.332
		c0-1.067-0.432-2.086-1.196-2.828l-0.361-0.352c-1.045-1.127-5.403-5.8-7.238-7.181c-0.19-0.142-0.387-0.263-0.597-0.367
		c-0.003-0.004-0.387-0.231-1.039-1.211c-0.14-0.209-0.299-0.403-0.478-0.582c-1.538-1.562-3.313-3.313-4.882-4.342
		c-0.123-0.082-0.253-0.156-0.382-0.221c-0.296-0.146-0.376-0.227-0.618-0.481c-0.145-0.15-0.303-0.293-0.469-0.417
		c-1.787-1.355-4.01-3.04-8.214-4.086c-0.311-0.079-0.632-0.119-0.952-0.119c-0.11,0-0.346,0.002-0.355,0.002
		c-0.546-0.278-1.155-0.427-1.779-0.427c-0.079,0-0.154,0-0.227,0.002c-0.139-0.214-0.33-0.523-0.587-0.981
		c-0.046-0.08-0.095-0.157-0.146-0.235c-0.647-0.969-1.355-2.373-1.688-3.339c-0.091-0.254-0.201-0.5-0.339-0.729
		c-0.216-0.361-0.404-0.696-0.574-1c-0.972-1.72-2.433-4.318-5.765-4.318h-0.854c-0.416,0-0.835,0.067-1.232,0.199
		c-1.608,0.531-2.862,1.747-3.783,3.681c-1.005-0.326-2.025-0.489-3.053-0.489c-2.548,0-5.174,1.116-7.243,3.066
		c-0.994,0.697-3.422,1.175-5.067,1.175c-1.101,0-2.022,0.199-2.787,0.537c-0.038-0.147-0.056-0.288-0.056-0.416
		c0-1.216-0.512-2.725-1.573-3.931c1.45-1.387,2.604-3.246,2.825-5.492c0.489-1.771,0.082-3.699-1.114-5.185
		c0.001-0.006,0.005-0.011,0.006-0.018c0.663,0.478,1.468,0.74,2.297,0.74h0.403c2.458,0,3.654-1.452,4.164-2.071
		c0.087-0.102,0.185-0.221,0.313-0.354c0.084-0.085,0.17-0.172,0.253-0.262c0.297,0.069,0.609,0.117,0.948,0.133
		c0.03,0.482,0.087,0.982,0.171,1.506c0.044,0.506,0.185,0.998,0.421,1.452l0.435,0.85c0.567,1.1,1.608,1.859,2.804,2.072
		c1.145,0.573,3.034,1.337,4.94,1.337c2.722,0,4.967-1.694,5.851-4.421c0.023-0.077,0.044-0.154,0.066-0.231
		c0.429-1.67,0.552-3.568,0.369-5.367c0.185-0.281,0.375-0.6,0.563-0.958c0.818-1.464,2.442-5.812-3.778-10.094
		c-0.553-0.788-1.33-1.41-2.236-1.764c-0.155-0.111-0.304-0.223-0.449-0.33c-0.7-0.512-1.464-1.076-2.442-1.533
		c-0.664-0.591-1.474-0.919-2.303-0.986c-0.452-0.363-0.988-0.627-1.57-0.761l-0.166-0.171c-0.099-0.102-0.203-0.201-0.313-0.293
		c-0.552-0.623-1.296-1.072-2.138-1.25c-0.487-0.196-1.355-0.507-2.513-0.507c-1.22,0-2.148,0.346-2.816,0.683
		c0.355-2.568-0.314-5.599-4.787-6.851c-0.001-0.016-0.007-0.03-0.009-0.043c-0.066-0.312-0.167-0.617-0.307-0.903l-0.132-0.311
		c-0.389-0.935-1.456-3.499-4.011-4.251c-0.01-0.036-0.018-0.071-0.028-0.105c-0.203-0.838-0.468-1.572-0.798-2.206
		c0.326-0.364,0.67-0.755,1.026-1.175c0.609-0.713,0.941-1.62,0.941-2.555v-0.424l-0.045-0.344c0.012-0.019,0.12-0.209,0.586-0.677
		c3.485-3.469,2.876-7.666,2.794-8.131c-0.063-0.356-0.173-0.705-0.331-1.03l-0.41-0.847c-0.653-1.367-2.034-2.234-3.546-2.234
		h-2.135c-1.858,0-4.156,0-6.591,1.139c-0.575,0.201-1.08,0.4-1.58,0.603c-0.479,0.193-0.955,0.385-1.639,0.61
		c-1.324,0.446-2.976,1.002-4.666,2.113c-0.226,0.146-0.431,0.317-0.616,0.503c-1.646,1.642-3.592,4.896-4.022,7.073h-0.005
		l-0.44,2.12c-0.244,1.196,0.074,2.425,0.846,3.339c-1.496,1.077-2.206,2.779-2.511,3.503l-0.131,0.313
		c-0.071,0.142-0.133,0.294-0.186,0.444c-0.645,1.892-0.645,3.983-0.645,5.511c0,0,0,0.904,0.005,0.937
		c-1.204,1.274-2.622,3.156-2.905,6.072c-1.303-0.793-2.762-1.166-4.534-1.178l-0.014-0.005c-0.167-0.084-0.34-0.157-0.519-0.215
		c-1.869-0.63-3.219-0.63-4.643-0.63h-1.261c-0.186,0-0.37,0.016-0.556,0.04c-2.886,0.41-8.686,0.809-10.911,0.809h-3.388
		c-0.321,0-0.642,0.039-0.957,0.119c-1.221,0.303-2.571,0.303-4.135,0.303c-0.127,0-0.236,0-0.342-0.004
		c-0.178-0.352-0.42-0.677-0.704-0.963c-0.122-0.124-0.246-0.261-0.371-0.4c-0.916-1.004-2.619-2.872-5.389-2.872h-1.263
		c-0.609,0-1.215,0.141-1.763,0.414c-2.771,1.388-5.085,4.769-6.225,9.078c-0.689,1.71-0.994,2.251-1.958,3.544
		c-0.196,0.262-0.356,0.55-0.48,0.848c-0.014,0.011-0.023,0.025-0.034,0.037c-0.232,0.237-0.43,0.502-0.594,0.792l-0.687,1.188
		c-1.431,2.451-2.898,4.974-3.194,7.806c-0.107,0.083-0.246,0.182-0.423,0.301c-0.133,0.09-0.257,0.185-0.375,0.286
		c-0.532,0.336-0.943,0.708-1.254,1.093c-1.602,1.103-4.026,2.876-5.839,4.314c-0.127,0.099-0.247,0.206-0.358,0.322l-1.857,1.88
		c-2.725,1.994-4.452,5.233-5.28,7.112c-0.048,0.006-0.098,0.016-0.146,0.022h-2.632c-0.216,0-0.434,0.021-0.644,0.053
		c-0.434,0.071-0.894,0.13-1.369,0.19c-2.449,0.314-5.755,0.732-8.373,3.017c-1.113,0.647-1.814,1.348-2.621,2.152
		c-0.118,0.119-0.248,0.253-0.387,0.389c-1.776-1.575-3.888-2.407-6.142-2.407h-1.694c-0.323,0-0.647,0.041-0.96,0.12
		c-1.227,0.306-1.745,0.306-1.996,0.306c-1.874,0-5.006,0-6.962,3.917c-0.04,0.076-0.215,0.327-0.576,0.705
		c-1.146,0.73-2.3,1.89-2.859,3.37c-0.033,0.039-0.06,0.082-0.09,0.123c-1.616,0.187-2.71,0.976-3.312,1.522
		c-0.477,0.193-0.912,0.48-1.284,0.848c-2.452,2.429-2.452,5.05-2.452,6.612v0.106c-2.325,0.383-4.793,1.403-7.13,4.14
		c-0.059,0.067-0.111,0.138-0.167,0.209c-0.494,0.667-1.345,1.814-1.97,3.236c-0.569-0.915-1.498-1.566-2.573-1.783l-1.937-0.386
		c-0.68-0.167-1.329-0.39-1.772-0.57c-2.381-3.507-7.678-3.802-9.378-3.802c-0.476,0-4.689,0.069-7.021,2.44
		c-1.152,1.153-4.836,3.792-6.67,4.886c-1.795-1.866-3.914-2.484-5.598-2.845c-0.368-0.185-0.722-0.317-1.032-0.423
		c-0.21-0.136-0.432-0.254-0.66-0.35c-0.124-0.181-0.256-0.404-0.297-0.532c-0.01-0.03-0.017-0.058-0.031-0.086
		c0.672-0.726,0.937-0.726,1.365-0.726c4.51,0,9.765-3.036,10.955-7.642c0.125-0.1,0.355-0.256,0.764-0.483
		c0.458-0.088,0.913-0.256,1.304-0.471c4.546-2.536,9.255-5.158,9.965-9.567c0.032-0.208,0.048-0.419,0.048-0.629
		c0-2.056-0.54-4.604-1.016-6.853c-0.104-0.493-0.204-0.956-0.289-1.374c-0.051-0.384-0.163-0.865-0.392-1.385v-6.347
		c1.093-0.372,2.237-1.121,2.963-2.616c0.534-1.049,0.921-2.231,1.121-3.403c0.905,0.344,1.62,0.432,2.234,0.452
		c0.056,0.062,0.113,0.121,0.175,0.179c1.581,1.521,3.647,1.521,4.424,1.521c2.951,0,5.231-1.886,5.589-4.493
		c0.648-2.625-0.239-5.607-2.354-7.739c-0.191-0.194-0.398-0.365-0.625-0.514c-0.137-0.089-0.391-0.833-0.587-1.398
		c-0.036-0.107-0.121-0.305-0.168-0.408c-0.05-0.112-0.078-0.225-0.115-0.335c-0.237-0.729-0.634-1.921-1.676-3.03
		c-0.078-0.149-0.174-0.335-0.303-0.538c-0.98-3.077-3.047-5.159-6.152-6.189c-0.093-0.031-0.192-0.061-0.289-0.084
		c-3.206-0.802-4.056-1.117-5.703-2.11c-0.089-0.05-0.538-0.296-0.661-0.364c-0.686-0.393-1.825-1.049-3.509-1.049
		c-3.453,0-5.282,2.315-6.9,4.36l-0.295,0.372c-1.786,1.843-2.318,3.244-2.741,4.635c-0.043,0.158-0.099,0.325-0.154,0.5
		c-0.076,0.21-0.131,0.46-0.166,0.71c-0.025,0.045-0.15,0.313-0.184,0.394c-1.098,2.751-0.877,4.613-0.278,6.127v1.697
		c0,0.604,0.134,1.176,0.379,1.69c-2.603,0.666-4.954,1.832-7.121,3.523c-1.024,0.614-1.679,1.398-2.172,1.989
		c-0.161,0.193-0.33,0.402-0.533,0.608c-0.235,0.228-0.438,0.482-0.604,0.759c-1.321,2.178-1.982,2.346-2.156,2.346h-0.131
		c-1.509-0.246-2.617-1.066-3.646-2.042c-0.362-0.73-0.831-1.238-1.077-1.475c-2.568-2.559-10.074-5.182-13.44-5.736
		c-1.081-0.296-2.206-0.87-3.351-1.714c-0.422-0.382-0.858-0.671-1.222-0.913c-0.124-0.082-0.251-0.16-0.262-0.16
		c-0.445-0.434-0.979-0.748-1.561-0.933c-0.125-0.063-0.275-0.14-0.448-0.231c-1.7-0.874-4.861-2.5-7.956-2.5
		c-1.34,0-2.45,0.39-3.301,0.858c-0.91-2.202-3.054-3.972-5.28-4.995c-0.485-0.339-1.14-0.689-1.937-0.853l-0.373-0.132
		c-1.014-0.364-2.278-0.814-3.963-0.814c-0.565,0-1.302,0-2.085,0.147c0.609-2.283,0.935-4.754,0.935-7.249
		c0-0.857,0.089-1.533,0.194-2.314c0.068-0.516,0.144-1.075,0.189-1.691c0.465-1.172,0.465-2.362,0.465-3.163l0.028-0.287
		c0.102-0.979,0.335-3.179-1.211-5.07c-0.486-0.719-1.3-1.538-2.642-2.021c0-0.004,0-0.013,0-0.017
		c0.468-3.918-0.011-6.77-1.68-10.108c-0.125-0.253-0.28-0.493-0.456-0.712c-1.93-2.391-4.671-4.701-4.787-4.799
		c-0.056-0.044-1.867-1.408-1.867-1.408c-0.693-0.518-1.523-0.784-2.362-0.784c-0.601,0-1.204,0.137-1.76,0.415
		c-1.333,0.668-2.178,2.03-2.178,3.52v0.655c-0.149-0.129-0.308-0.273-0.477-0.443c-2.337-2.359-4.685-3.029-7.657-3.874
		l-0.429-0.123c-0.227-0.066-0.455-0.11-0.69-0.132c-1.392-0.578-2.919-1.261-4.088-1.822v-1.896c0-1.364-0.706-2.63-1.87-3.35
		c-0.632-0.389-1.349-0.585-2.068-0.585c-0.602,0-1.205,0.14-1.761,0.416l-1.696,0.848l0.011,0.021
		c-2.033,0.829-4.673,2.649-6.336,3.876c-0.684-0.574-1.566-0.917-2.527-0.917h-1.273c-0.437,0-3.967,0.095-7.289,3.096
		c-0.187-0.873-0.563-1.894-1.319-3.036c-0.146-0.217-0.311-0.421-0.496-0.605c-2.177-2.179-6.286-3.697-9.99-3.697
		c-3.951,0-5.605-0.314-6.284-0.613c-0.341-0.258-0.786-0.537-1.322-0.747c-1.956-1.372-3.641-2.028-6.825-2.028h-12.737
		c-0.612,0-1.054,0.074-1.603,0.349c-0.248,0.071-0.894,0.077-1.272,0.077c-1.386-1.426-3.094-2.122-5.179-2.122
		c-1.905,0-3.253,0.595-4.083,1.003c-1.04,0.301-1.904,1.021-2.396,1.965l-9.549,0.002c-0.022-1.141-0.111-2.489-0.505-4.107
		c-0.036-0.212-0.067-0.407-0.097-0.59c1.671-0.455,3.051-1.497,4.183-3.163c0.048-0.071,0.094-0.143,0.138-0.219
		c0.074-0.061,0.149-0.114,0.219-0.169c0.335-0.254,0.629-0.499,0.872-0.74l0.332-0.314c0.889-0.824,3.159-2.929,2.48-6.05
		c-0.175-1.829-1.147-3.281-2.896-4.325c-0.333-0.269-0.663-0.49-0.947-0.682c-0.112-0.074-0.225-0.146-0.242-0.146
		c-0.004,0-0.004,0.001-0.003,0.005c-0.435-0.435-0.966-0.764-1.554-0.958c-0.208-0.069-0.495-0.228-0.798-0.397
		c-0.764-0.426-1.92-1.072-3.418-1.072c-2.651,0-4.694,1.128-6.24,3.445c-0.04,0.057-0.074,0.115-0.111,0.173
		c-1.412,2.375-2.056,5.103-2.211,6.787l-0.569,1.713c-2.144,3.901-3.572,7.303-4.486,12.727c-0.732,3.353-0.626,6.109-0.541,8.33
		c0.022,0.606,0.045,1.187,0.045,1.744v4.371c-1.144,7.625,3.003,9.31,4.862,9.682c0.254,0.048,0.512,0.075,0.77,0.075h1.276
		c1.114,0,1.959-0.291,2.501-0.507c1.159-0.242,2.165-1.004,2.71-2.087c0.737-1.468,1.383-3.991,0.418-7.799
		c-0.001-0.114-0.013-0.225-0.023-0.336c-0.03-0.283-0.063-0.56-0.09-0.817c0.395,0.055,0.817,0.084,1.268,0.084
		c0.566,0,2.012,0,3.579-0.701c2.404-0.81,3.335-1.385,4.558-2.224l0.401-0.27c0.153-0.055,0.303-0.119,0.447-0.192
		c0.192-0.095,0.368-0.19,0.536-0.283c0.782,2.329,2.334,6.651,5.784,9.152c0.229,0.218,0.45,0.439,0.671,0.66
		c-0.314,4.648,1.358,8.461,4.289,10.068c0.091,2.979,2.12,4.691,3.343,5.725c0.259,0.218,0.527,0.44,0.774,0.685
		c0.354,0.354,0.699,0.65,1.017,0.905c-0.47,1.115-0.628,2.363-0.467,3.742c0.04,0.7,0.264,1.374,0.654,1.959
		c0.818,1.229,1.759,2.105,2.893,2.669c0.019,0.21,0.043,0.419,0.081,0.626c-0.064,0.046-0.133,0.095-0.202,0.146
		c-1.353,0.737-2.829,1.879-4,4.801c-0.088,0.223-0.157,0.456-0.204,0.689c-0.518,2.591-0.528,4.757-0.025,6.602
		c-2.82,0-6.659,0.021-10.177,2.354c-0.133,0.088-0.264,0.186-0.385,0.291l-2.603,2.229l-1.261,0.633
		c-1.387,0.694-2.237,2.14-2.171,3.688c0.036,0.885,0.369,1.711,0.918,2.364c-0.051,0.068-0.099,0.136-0.147,0.205
		c-1.57,2-3.104,6.059,2.766,11.778l0.157,0.157c0.3,0.298,0.646,0.544,1.026,0.737c0,0,1.017,0.509,1.097,0.548
		c0.033,0.077,0.067,0.154,0.105,0.229c0.565,1.131,1.993,3.029,5.236,3.029c2.045,0,3.338-1.29,4.051-2.001
		c0.297-0.295,0.643-0.52,1.335-0.958c0.201-0.127,0.412-0.264,0.637-0.407c0.254-0.025,0.763-0.025,1.181-0.025
		c0.104,0,0.21,0.001,0.317,0.006c-0.008,0.099-0.011,0.198-0.011,0.298c0,0.466-0.019,0.779-0.036,0.98
		c-0.497,0.614-0.749,1.225-0.912,1.617c-0.024,0.063-0.049,0.13-0.031,0.13c0.003,0,0.007-0.001,0.013-0.006
		c-0.3,0.302-0.548,0.647-0.74,1.028c-1.587,3.176-2.113,6.049,0.437,9.598c0.023,0.988,0.253,2.244,1.432,3.668
		c1.013,2.003,2.98,3.436,5.198,3.802c-0.273,0.125-0.537,0.267-0.787,0.419c-0.383,0.084-0.804,0.227-1.238,0.448
		c-1.97,0.473-3.551,1.913-4.324,4.001c-1.073,2.488,0.27,4.639,0.791,5.468c0.066,0.104,0.135,0.206,0.188,0.309
		c0.121,0.248,0.273,0.483,0.444,0.701l0.665,0.82c1.282,1.571,1.927,2.361,2.441,4.165c0.071,0.252,0.169,0.497,0.291,0.732
		c0.207,0.399,0.408,0.731,0.589,1.015c0.033,0.111,0.069,0.218,0.114,0.325l0.176,0.443c0.81,2.048,1.513,3.82,3.665,5.985
		c1.606,1.606,3.249,2.68,4.967,3.238c-0.545,0.079-1.115,0.119-1.71,0.119c-0.864,0-1.783-0.088-2.743-0.262
		c-1.041-0.19-2.1-0.28-3.24-0.28c-0.848,0-1.636,0.05-2.379,0.101c-0.49,0.035-0.952,0.069-1.392,0.069
		c-0.652,0-0.679-0.031-0.89-0.278c-0.273-0.316-0.56-0.665-0.859-1.026c-2.397-2.896-5.381-6.501-9.392-6.501
		c-1.337,0-3.301,0.418-5.043,2.41c-3.505,4.003-5.846,6.89-6.434,10.424c-0.463,2.771-2.084,9.21-3.357,11.434
		c-2.667,4.678-0.855,12.193,1.418,15.597c0,0,0.96,1.415,1.119,1.664c-0.086,0.019-0.177,0.039-0.265,0.063
		c-0.107-0.02-0.255-0.049-0.443-0.099c-0.961-0.24-1.687-0.363-2.27-0.462c-0.11-0.018-0.208-0.031-0.303-0.049
		c-0.134-0.158-0.354-0.438-0.702-0.927c-0.36-0.504-0.706-1.046-1.046-1.585c-1.623-2.548-3.64-5.722-7.395-5.722
		c-1.333,0-2.621,0.438-3.839,1.304c-0.655,0.47-1.211,0.784-1.747,1.084c-1.802,1.018-3.453,2.183-3.981,4.854
		c-0.333-0.768-0.64-1.577-0.941-2.374c-0.688-1.814-1.34-3.527-2.322-4.837c-1.163-1.55-2.746-2.079-3.86-2.334
		c0.011-0.351,0.029-0.668,0.045-0.955c0.123-2.207,0.327-5.885-4.906-7.439c-0.834-0.303-4.242-1.467-7.164-1.467
		c-0.667,0-1.381-0.101-2.142-0.21c-0.847-0.122-1.723-0.248-2.651-0.248c-1.959,0-3.614,0.598-4.928,1.776
		c-0.629,0.19-2.177,0.306-3.129,0.378c-2.196,0.169-4.468,0.34-6.31,1.264c-2.68,1.34-7.641,3.2-9.931,3.25
		c-2.241-1.067-5.933-2.245-9.43-2.245c-1.202,0-2.313,0.145-3.311,0.429c-0.614,0.174-1.963,0.263-3.152,0.336
		c-3.432,0.219-7.705,0.492-10.433,3.217c-0.83,0.834-1.983,1.827-3.204,2.878c-2.376,2.041-4.828,4.151-6.198,6.204
		c-0.954,1.428-2.144,3.626-1.497,6.214c0.05,0.202,0.111,0.398,0.177,0.589c-3.376,0.827-4.141,3.915-4.674,6.063l-0.062,0.252
		c-0.388,1.542-0.608,3.018-0.822,4.444c-0.281,1.88-0.548,3.658-1.17,5.31c-0.952,2.552-2.227,7.396-0.081,11.175
		c0.816,1.435,2.453,3.268,5.609,3.843c1.392,0.253,2.979,0.373,4.999,0.373c1.354,0,2.731-0.057,4.03-0.108
		c0.586-0.022,1.154-0.046,1.693-0.062c-0.074,0.75-0.118,1.475-0.16,2.174c-0.057,1.006-0.146,2.523-0.335,2.853
		c-1.917,1.923-2.237,4.203-0.942,6.774c0.237,0.469,0.292,0.578,0.262,0.894c-0.935,0.677-1.855,1.744-2.451,3.788
		c-1.032,3.61-0.592,5.727,0.134,9.224l0.23,1.124c0.643,3.212,1.84,9.188,0.425,11.734c-0.771,1.373-1.601,3.078-2.481,4.883
		c-1.494,3.066-3.358,6.887-4.723,8.485c-2.29,2.677-3.63,6.471-4.153,10.041h566.766
		C797.493,291.261,797.271,291.008,797.157,290.821z"/>
	<path fill="#DE1F26" d="M231.035,296.836c0.214,1.931-0.385,5.167-0.782,7.307c-0.298,1.611-0.514,2.777-0.514,3.721
		c0,0.162,0,0.313-0.003,0.454c-1.347-0.366-2.547-0.444-3.59-0.513c-0.884-0.06-1.648-0.107-2.425-0.332
		c-0.734-0.209-1.444-0.505-2.195-0.817c-1.425-0.594-3.042-1.265-4.876-1.265c-0.929,0-1.831,0.175-2.575,0.475
		c-0.291,0.076-1.176,0.115-1.768,0.139c-2.093,0.087-8.461,0.354-8.461,6.102c0,0.586-0.019,1.154-0.035,1.689
		c0,0.001,0,0.003,0,0.003l0,0c-0.055,1.778-0.119,3.842,0.645,5.582c-1.505,1.058-2.307,2.553-2.307,5.456
		c0,3.386,0,9.048,4.595,10.879c2.236,0.896,7.78,3.024,10.41,3.899c2.169,0.723,4.669,1.461,6.771,1.461
		c1.204,0,2.193-0.256,2.988-0.666c0.984,2.038,2.237,3.884,3.465,4.988c0.127,0.639,0.038,1.691-0.204,2.031
		c-1.04,1.304-4.65,7.769-3.882,12.104c-1.896,0.591-3.893,1.823-5.14,4.314c-0.998,0.13-2.242,0.48-3.669,1.436
		c-0.217,0.143-0.417,0.308-0.599,0.492c-1.293,1.292-2.416,3.386-3.047,5.663c-0.07,0.15-0.266,0.593-0.293,0.653
		c-0.05,0.051-0.1,0.1-0.145,0.149c-0.378,0.013-0.902,0.013-1.379,0.013c-3.96,0-6.58,2.286-8.05,4.527
		c-1.496,0.484-2.771,1.574-3.441,2.904c-1.346,1.788-1.346,3.631-1.346,4.577c0,3.155,2.32,4.888,4.187,6.278l0.354,0.263
		c0.339,0.253,0.715,0.451,1.115,0.583l0.843,0.282c1.115,0.707,1.927,1.413,2.719,2.181c-0.122,0.17-0.231,0.351-0.324,0.54
		l-1.467,2.933c-1.183-0.837-2.661-1.295-4.337-1.295c-0.957,0-2.032,0-3.521,0.669c-2.237,0.692-8.743,3.289-11.488,5.537
		c-0.167,0.094-0.692,0.411-0.788,0.469c-1.714-1.562-4.028-2.86-6.281-2.86c-2.055,0-3.705,1.18-4.778,2.524
		c-1.278-0.496-2.667-0.826-4.128-0.826h-2.883c-0.113-0.234-0.22-0.466-0.322-0.693c-0.718-1.564-2.208-4.82-6.14-4.82
		c-4.793,0-6.645,2.129-7.357,3.84c-0.162,0.282-0.3,0.581-0.407,0.895c-2.205,0.318-4.28,1.69-5.689,3.807
		c-0.026,0.038-0.053,0.077-0.077,0.118c-0.251,0.068-0.657,0.16-1.303,0.272c-2.843,0.166-5.397,2.095-6.299,4.801
		c-0.134,0.399-0.201,0.82-0.201,1.244c0,2.088,0.644,4.004,1.851,5.576c-0.167,0.154-0.307,0.293-0.429,0.417
		c-0.604,0.376-1.105,0.917-1.433,1.577l-1.271,2.545c-0.712,1.423-0.496,3.134,0.546,4.339c0.761,0.875,1.853,1.357,2.975,1.357
		c0.416,0,0.837-0.068,1.246-0.203l1.936-0.645h0.511c0,0.244,0,0.496,0,0.741c0,1.67,0,5.724,4.01,7.958
		c-0.114,0.428-0.18,0.881-0.18,1.369c0,2.774,1.253,4.583,3.265,6.589c2.311,2.326,2.614,3.002,2.79,3.709
		c0.023,0.098,0.052,0.195,0.083,0.288c0.511,1.535,1.026,2.566,1.484,3.485c0.139,0.279,0.277,0.525,0.417,0.769
		c0.245,0.431,0.369,0.645,0.556,1.396c0.069,0.278,0.163,0.536,0.294,0.793c0.067,0.159,0.09,0.322,0.131,0.478
		c0.103,0.415,0.234,0.939,0.476,1.534c0.052,0.232,0.104,0.46,0.158,0.693c0.387,1.674,0.487,2.331,0.089,3.127
		c-0.05,0.098-0.094,0.195-0.135,0.301c-1.131,2.824-1.131,5.521-1.131,6.97c0,0.425,0.069,0.845,0.203,1.245
		c0.032,0.103,0.074,0.255,0.074,0.258c-1.366,0.853-2.485,2.136-3.654,3.688c-1.342,1.676-2.198,3.091-2.889,4.231
		c-0.247,0.409-0.475,0.789-0.748,1.196c-0.786,1.181-1.533,2.304-2.065,3.263c-1.256,1.47-4.561,5.799-4.069,10.213
		c0.131,2.253,1.642,3.546,2.333,4.083c-0.86,0.804-1.678,1.825-2.342,3.151c-0.544,0.25-1.279,0.644-2.029,1.339
		c-0.653,0.516-1.206,1.091-1.682,1.675c-0.902-0.604-1.941-0.918-2.952-0.918c-1.298,0-3.226,0.393-5.146,2.242
		c-1.783,1.434-3.455,4.025-1.985,8.442c0.06,0.185,0.133,0.362,0.216,0.535c0.129,0.248,0.354,0.697,0.429,0.918v1.422
		c-0.74,2.924,0.158,5.157,1.087,6.553c0.146,0.221,0.314,0.423,0.503,0.61c1.576,1.566,3.386,1.566,4.468,1.566h1.273
		c0.258,0,0.514-0.025,0.767-0.077c0.209-0.042,0.407-0.077,0.591-0.11c0.127,0.944,0.47,1.79,1.031,2.494
		c0.859,1.206,1.935,2.129,3.195,2.742c-1.335,0.318-2.237,1.009-2.835,1.698c-2.019,1.554-2.019,3.713-2.019,4.591
		c0,0.123,0,0.25,0,0.377c-2.317,0.94-3.396,3.107-3.396,5.158c0,3.188,2.407,4.972,4.028,6.059
		c-0.21,1.715-0.161,3.447,0.635,5.032c1.236,2.464,3.648,3.274,4.807,3.666c0.402,0.133,0.828,0.2,1.252,0.2h0.85
		c0.394,0,0.875,0,1.397-0.047c0.099,0.271,0.226,0.529,0.38,0.774c0.101,0.361,0.245,0.87,0.499,1.442
		c0.164,0.554,0.164,0.876,0.164,1.12c0,3.701,1.922,5.472,4.036,6.483c-1.093,1.091-1.832,2.573-2.232,4.472
		c-1.171,4.275,0.171,6.843,1.734,8.607c0.174,0.302,0.402,0.606,0.691,0.893c0.255,0.597,0.607,1.066,1.01,1.436
		c0.81,1.243,2.376,2.833,5.481,2.833c0.479,0,1.585,0,2.86-0.421l0.553,0.004c0.096,0.142,0.284,0.468,0.503,1.117
		c0.057,0.176,0.127,0.34,0.207,0.506c0.419,0.841,0.949,1.438,1.362,1.859c-1.397,2.934-2.523,6.342-0.77,10.33
		c-4.021,0.448-6.064,4.179-6.853,5.74c-0.234,0.117-0.563,0.262-0.825,0.374c-0.436,0.197-0.888,0.399-1.328,0.615
		c-0.111,0.055-0.226,0.083-0.34,0.122c-0.676,0.227-1.77,0.587-2.874,1.556c-3.027,2.058-4.578,6.048-4.016,9.827
		c-1.431,1.199-2.261,2.66-2.508,4.423c-0.241,0.56-0.368,1.099-0.473,1.55c-0.049,0.208-0.103,0.444-0.181,0.705
		c-0.225,0.47-0.448,1.014-0.667,1.555c-0.165,0.401-0.319,0.8-0.48,1.122c-0.083,0.169-0.156,0.337-0.212,0.515l-0.261,0.763
		c-0.948,2.76-2.252,6.54-0.38,10.313c0.075,0.15,0.16,0.3,0.255,0.438c0.476,0.71,0.766,1.468,1.153,3.005
		c0.044,0.179,0.102,0.356,0.172,0.528c0.908,2.228,2.005,4.543,3.854,6.397c0.35,0.346,0.853,0.845,1.525,1.262
		c0.016,0.018,0.029,0.037,0.045,0.053c0.443,0.563,0.548,0.692,0.693,1.54c0.37,3.149,1.476,5.807,3.262,7.963H668.29
		c0.072-0.073,0.134-0.142,0.213-0.22c0.127-0.126,0.245-0.263,0.354-0.405c1.549-2.054,3.669-4.862,2.819-8.396
		c-0.033-0.113-0.063-0.232-0.104-0.348c-0.969-2.827-3.006-4.231-4.738-5.123c0.081-0.811,0.021-1.743-0.294-2.777
		c-0.868-3.11-4.019-5.468-8.254-6.171c-0.215-0.033-0.429-0.049-0.646-0.049c-0.226,0-0.373-0.012-0.469-0.019
		c-0.23-0.194-0.644-0.611-0.985-0.953c-0.3-0.298-0.641-0.544-1.018-0.733c-0.248-0.122-0.434-0.255-0.616-0.378
		c-0.297-0.202-0.596-0.399-0.939-0.593c-1.077-0.968-2.106-1.54-2.955-2.015c-0.338-0.191-0.673-0.377-1.015-0.604
		c-0.373-0.243-0.785-0.428-1.219-0.536c-0.376-0.098-0.6-0.197-0.718-0.261c-1.014-2.81-2.917-4.763-5.664-5.826
		c0.689-0.9,1.197-1.94,1.517-3.056c0.771,0.61,1.719,0.996,2.885,0.996c3.799,0,5.159-4.128,5.597-5.459
		c0.784-2.332,1.34-4.262,1.787-5.816c0.343-1.192,0.725-2.53,0.975-3.119c2.056-1.68,3.034-4.603,3.303-6.802
		c0.399-0.228,1.067-0.546,2.047-0.869c2.663-0.874,3.854-3.512,4.803-5.628c0.04-0.084,0.079-0.168,0.116-0.249
		c1.871-0.813,7.166-2.001,9.307-2.036c0.446,0.1,0.997,0.198,1.598,0.198c2.074,0,3.358-1.011,4.983-2.289
		c0.426-0.336,0.937-0.736,1.558-1.207c1.585-1.194,2.623-1.348,3.347-1.348c1.081,0,2.349,0.407,3.855,1.226
		c0.753,0.413,1.272,0.73,1.621,0.961c0.59,1.519,2.057,2.515,3.666,2.515c0.234,0,0.473-0.022,0.711-0.064
		c0.71-0.13,6.991-1.439,8.964-7.332c0.744-2.268,0.744-3.931,0.611-5.164c0.762-0.03,1.499-0.179,2.188-0.455
		c0.332-0.13,0.646-0.263,0.948-0.392c0.805-0.336,1.275-0.525,1.581-0.525c0.177,0,0.416,0.048,0.718,0.149
		c0.829,0.274,1.659,0.411,2.483,0.411c3.547,0,7.369-2.766,7.369-8.821c0-0.621,0.063-1.202,0.156-1.712
		c0.944,0.538,1.986,0.956,3.183,0.956c2.291,0,4.162-1.588,4.669-4.016l0.167-0.928c0.15-0.88,0.239-1.367,0.462-1.844
		c1.454,1.159,2.99,2.245,4.993,2.245c1.019,0,2.517-0.295,3.863-1.655c0.234-0.23,0.415-0.348,0.587-0.468
		c0.992-0.687,1.93-1.427,3.344-3.549c2.245-3.383,2.354-5.051,2.354-7.705c0-0.12-0.003-0.241-0.005-0.36
		c1.676-0.093,3.309-0.64,5.211-1.727c0.297-0.169,0.704-0.368,0.97-0.368c0.195,0,0.513,0.063,0.877,0.138
		c0.646,0.137,1.526,0.318,2.575,0.318c2.215,0,3.597-0.8,4.605-1.383c0.619-0.359,1.106-0.639,2.01-0.896
		c0.277-0.074,0.429-0.093,0.495-0.093c0.098,0,0.24,0.037,0.57,0.128c0.58,0.15,1.374,0.367,2.413,0.367
		c0.861,0,1.718-0.148,2.62-0.449c0.396-0.132,0.765-0.238,1.104-0.339c1.542-0.449,3.656-1.074,4.701-3.221
		c0.669-1.378,0.665-2.929,0.005-4.577c-0.023-0.071-0.043-0.345,0.134-0.662c0.319-0.558,1.111-1.024,2.242-1.304
		c1.17-0.293,1.907-0.332,2.419-0.332c0.375,0,0.706,0.021,1.015,0.039c0.42,0.031,0.813,0.049,1.2,0.049
		c2.063,0,3.84-0.6,5.925-1.996c4.146-2.763,7.2-4.619,9.347-5.688c2.459-1.238,3.136-2.841,3.187-4.16
		c0.933-0.784,1.164-0.814,2.349-0.963c0.733-0.093,1.737-0.221,3.015-0.534c1.728-0.429,7.383-2.187,7.561-6.726
		c0.06-1.546-0.525-4.37-5.066-5.889c-0.771-0.273-2.165-0.779-3.023-1.156c-0.33-1.79-1.552-3.127-3.646-3.99
		c0.031-0.115,0.063-0.235,0.1-0.358c0.729,0.097,1.424,0.184,1.733,0.257c0.204,0.172,0.416,0.405,0.72,0.705
		c0.103,0.103,0.213,0.201,0.331,0.291c1.183,0.947,2.807,2.236,4.95,2.236c2.727,0,4.389-2.026,5.185-3.166
		c1.041,0.84,2.271,1.496,3.465,2.135c0.63,0.33,1.531,0.816,1.974,1.128c0.144,0.541,0.096,1.258-0.12,1.54
		c-1.423,1.87-1.701,4.37-0.712,6.367c0.843,1.704,2.495,2.825,4.396,3.026c-0.508,1.673-0.195,3.046,0.13,3.855
		c0.504,1.271,1.943,3.479,5.935,4.055c2.414,0.358,4.549,1.178,5.195,1.593c1.002,1.266,2.586,1.985,4.417,1.985
		c3.51,0,7.519-2.624,8.03-7.44l0.141-1.243c0.315-2.928,0.456-4.257,1.926-5.979c2.281-2.666,2.845-6.086,3.297-8.837
		c0.207-1.229,0.414-2.5,0.712-3.19c0.075-0.171,7.129-17.721,4.589-22.87c-0.425-0.839,0.301-3.297,0.787-4.922l0.332-1.137
		c1.203-4.227-1.282-9.147-3.276-13.101l-0.905-1.782c-2.319-4.504-3.295-7.262-2.903-8.191c1.553-3.098,1.407-7.106-0.361-9.972
		c-1.397-2.265-3.658-3.564-6.2-3.564c-0.766,0-1.549,0.119-2.332,0.354c-0.319,0.095-0.634,0.142-0.959,0.142
		c-1.403,0-2.944-0.914-4.436-1.8c-0.667-0.396-1.301-0.767-1.889-1.058c-0.58-0.293-1.307-0.772-2.067-1.361
		c-0.008-0.136-0.025-0.269-0.044-0.402c0.347-0.416,0.681-0.853,0.99-1.302c2.798-3.598,1.901-6.302,0.769-9.713l-0.228-0.678
		c-0.225-0.658-0.225-0.982-0.225-1.698c0-0.249-0.024-0.5-0.07-0.743c-0.413-2.153-1.268-6.603-6.972-8.119
		c-0.262-0.095-0.377-0.157-0.396-0.157c-0.159-0.236-0.408-1.043-0.605-1.731c-0.005-0.176-0.025-0.353-0.055-0.53
		c-0.649-3.801-2.638-5.775-4.091-7.217c-0.3-0.298-0.62-0.53-0.992-0.716c-0.007-0.004-0.11-0.078-0.192-0.318
		c-0.049-0.131-0.1-0.263-0.16-0.389c0.162-0.195,0.343-0.415,0.535-0.646c3.142-2.784,7.086-8.721,6.656-13.994
		c-0.003-0.798-0.034-1.686-0.469-2.826c-0.011-0.213-0.062-0.838-0.066-0.942c0.094-0.165,0.179-0.333,0.247-0.508
		c0.35-0.354,0.629-0.769,0.821-1.224c0.131-0.314,0.286-0.654,0.448-1.012c1.375-3.03,4.596-10.13-1.409-14.774
		c-1.685-1.179-2.464-2.024-2.808-2.488c1.24-2.073,2.424-4.398,1.141-7.043c-0.094-0.194-0.218-0.395-0.359-0.583
		c0.876-2.53,0.056-5.058-0.286-6.119c-0.061-0.186-0.136-0.368-0.223-0.544c-1.388-2.782-3.527-4.559-6-5.033
		c-1.128-0.553-2.168-0.553-2.641-0.553c-0.56,0-1.558-0.179-2.367-0.381c-0.147-0.525-0.317-1.003-0.479-1.451l-0.213-0.595
		c-0.109-0.319-0.262-0.624-0.445-0.905c-0.417-0.627-0.743-1.845-1.055-3.05c-0.115-1.843-0.808-3.586-2.07-5.183
		c0.828-1.401,1.091-1.81,1.732-2.455c0.265-0.255,0.533-0.578,0.813-0.941c0.05-0.064,0.103-0.133,0.156-0.201
		c0.378-0.228,0.718-0.514,1.004-0.853c3.347-3.989,2.7-7.333,1.495-10.352c-0.094-0.23-0.205-0.451-0.338-0.658
		c-0.021-0.064-0.045-0.128-0.07-0.192c-0.179-0.443-0.188-0.906-0.149-1.173c0.08-0.07,0.155-0.146,0.227-0.217
		c0.567-0.59,1.898-1.971,1.898-4.374c0-3.972-3.758-7.153-6.827-9.715c-1.272-1.207-2.749-1.794-4.6-2.534l-0.802-0.322
		c-0.077-0.032-0.156-0.061-0.236-0.086c-2.414-0.804-3.686-1.444-4.387-1.93H231.196
		C230.921,293.463,230.861,295.281,231.035,296.836z"/>
	<path fill="#F5D821" d="M159.336,658.305c0.094,0.061,0.248,0.155,0.378,0.227c0.305,0.592,0.759,1.102,1.315,1.473
		c0.208,0.139,0.397,0.301,0.589,0.458c1.016,0.835,2.688,2.199,5.469,2.317c1.06,2.659,3.638,5.008,8.425,5.457
		c-0.105,1.061-0.105,2.081-0.105,2.924c0,0.28,0,0.594-0.004,0.854c-0.183,0.099-0.397,0.224-0.632,0.389
		c-2.622,1.142-5.035,2.953-5.686,7.545c-0.026,0.181-0.041,0.369-0.041,0.552v1.236l-0.084,0.362
		c-0.201,0.879-0.201,0.879-0.454,1.132c-2.287,2.28-4.711,5.128-5.343,8.922c-0.005,0.034-0.011,0.068-0.016,0.104l-0.047,0.149
		c-0.071,0.213-0.152,0.457-0.225,0.733c-0.347,0.595-0.872,1.509-1.014,2.812l-0.733,2.563c-0.465,1.626,0.155,3.358,1.541,4.321
		c0.418,0.291,0.878,0.491,1.356,0.6c0.67,2.715,2.118,6.467,6.295,6.467c0.939,0,1.896-0.235,2.847-0.687
		c0.506,0.653,1.218,1.427,2.291,1.965l0.732,0.358c0.427,0.201,1.34,0.636,2.009,1.033c-0.355,2.288,0.402,4.522,2.058,6.21
		c-1.386,3.286,1.297,6.496,2.85,8.354c0.796,0.967,1.709,1.85,2.592,2.702c0.802,0.779,2.121,2.051,2.44,2.67
		c0.056,3.145,1.245,5.779,3.08,7.252c-0.021,0.118-0.039,0.237-0.057,0.354c-0.352,2.13,0.008,3.938,1.069,5.387
		c1.547,2.105,4.068,2.706,6.09,2.992c0.184,0.026,0.291,0.054,0.315,0.054c0.002,0,0.117,0.109,0.169,0.163
		c0.567,0.579,1.896,1.938,4.312,1.938c1.965,0,3.953-1.102,5.457-3.025c1.586-2.035,2.248-4.445,1.773-6.459
		c0.031,0,0.06,0,0.086,0c0.241,0,0.38,0.023,0.419,0.023c0.01,0,0.011,0,0.01-0.005c0.177,0.103,0.367,0.2,0.561,0.273
		c1.032,0.404,2.038,0.557,2.847,0.68c0.43,0.063,1.081,0.159,1.17,0.182c0,0,0.05,0.064,0.181,0.406
		c0.666,1.561,0.903,2.503,1.207,3.686c0.217,0.855,0.44,1.733,0.801,2.816c0.928,2.783,3.37,4.659,6.078,4.659
		c1.573,0,2.947-0.611,3.919-1.628c2.423,1.575,6.041,3.02,9.012,3.02c1.139,0,2.167-0.202,3.069-0.604
		c0.434,0.127,0.996,0.249,1.668,0.249c1.581,0,3.063-0.688,4.413-2.037l0.135-0.134c0.886-0.086,1.735-0.469,2.395-1.123
		l1.743-1.727c0.067-0.066,0.133-0.134,0.193-0.201c0.447-0.118,1.085-0.241,1.608-0.3c0.67,0.239,1.362,0.336,2.045,0.377
		c-0.054,1.805-0.165,5.562,3.888,8.263c0.085,0.056,0.173,0.111,0.263,0.165c0.067,0.058,0.132,0.128,0.196,0.186
		c0.394,0.396,0.961,0.964,1.8,1.437c0.222,0.154,0.428,0.305,0.621,0.449c1.103,0.824,2.474,1.838,4.404,1.838
		c0.16,0,0.317-0.007,0.479-0.024c1.564,2.243,4.037,4.261,7.153,4.261c0.648,0,2.183,0,3.528-0.817
		c0.965,0.34,1.731,0.396,2.419,0.396c1.472,0,2.771-0.484,3.759-0.963c0.492,0.396,1.084,0.75,1.806,1.035
		c0.388,0.269,0.779,0.447,1.148,0.563c0.993,0.486,2.39,1.06,4.313,1.06c1.569,0,3.226-0.543,4.628-1.503
		c1.509,1.003,3.406,1.947,5.08,2.783c0.162,0.085,0.332,0.148,0.503,0.209c0.284,0.093,0.634,0.334,1.04,0.614
		c0.481,0.329,0.939,0.63,1.389,0.858c0.03,0.019,0.059,0.029,0.089,0.041c0.135,0.1,0.273,0.187,0.41,0.259
		c1.737,1.511,3.841,2.516,6.041,2.913c-1.739,2.063-3.414,4.311-4.19,6.707c-0.372,0.815-0.951,2.321-1.078,4.104l-0.094,0.288
		c-0.274,0.836-0.699,2.124-1.035,2.871c-3.68,1.143-5.462,2.926-7.497,4.969c-0.299,0.298-0.545,0.639-0.734,1.018
		c-0.4,0.798-0.903,1.696-1.403,2.592c-0.561,1.013-1.122,2.021-1.574,2.924c-0.135,0.271-0.201,0.336-0.517,0.647
		c-0.387,0.382-0.689,0.838-0.89,1.343c-0.434,0.699-2.346,2.735-4.215,4.25c-3.728,2.593-7.527,8.855-7.527,15.042
		c0,3.123-0.837,4.685-2.111,6c-3.416,2.853-3.416,6.465-3.416,8.424v2.118c-0.405,1.948-0.424,4.072-0.426,6.493
		c-0.184,1.224-0.287,2.583-0.377,3.792c-0.028,0.353-0.06,0.779-0.094,1.187c-2.035,1.706-3.513,3.764-4.444,7.726
		c-0.445,1.062-0.888,1.876-1.394,2.799c-0.22,0.405-0.438,0.804-0.659,1.224c-0.639,0.771-1.072,1.577-1.456,2.301
		c-0.199,0.371-0.402,0.769-0.663,1.159c-0.038,0.051-0.071,0.107-0.105,0.168c-1.307,2.188-1.876,3.981-2.291,5.294l-0.038,0.113
		c-0.675,1.06-1.101,1.869-1.464,2.591c-2.296,3.155-3.203,8.385-2.229,12.974c0.461,3.015,1.809,5.465,2.796,7.269
		c0.201,0.363,0.389,0.703,0.539,1.005c0.089,0.181,0.143,0.325,0.19,0.448c0.067,0.173,0.146,0.387,0.256,0.625
		c-0.078,0.134-0.195,0.315-0.364,0.556c-1.923,2.048-3.188,4.978-3.435,7.896c-0.829,1.676-2.211,4.961-1.197,8.373
		c0.011,0.063,0.027,0.122,0.038,0.179c-0.067,0.089-0.14,0.185-0.219,0.292c-0.215,0.287-0.385,0.614-0.515,0.967
		c-0.016,0.021-0.031,0.047-0.045,0.065c-2.331,3.532-2.84,7.206-1.521,10.935c-0.149,0.232-0.264,0.445-0.36,0.632
		c-0.254,0.309-0.46,0.66-0.61,1.04c-2.204,5.52-1.008,10.421,3.557,14.562c0.142,0.128,0.295,0.251,0.459,0.357
		c0.793,0.534,0.793,0.534,0.793,1.395c0,0.663,0,2.247,0.933,3.668c0.931,1.999,2.77,3.41,5.027,3.902
		c0.109,0.33,0.243,0.659,0.405,0.987c0.074,0.147,0.157,0.292,0.247,0.428c1.566,2.35,4.515,3.869,7.516,3.869
		c1.59,0,2.928-0.583,3.958-1.09c2.407-0.719,4.791-2.284,6.189-3.315c0.792-0.4,1.652-0.875,2.481-1.329
		c0.738,1.732,2.101,3.644,4.752,3.985c1.01,0.32,2.255,0.474,3.834,0.474c2.046,0,12.471-0.217,16.795-4.558
		c1.7-1.701,5.603-3.56,8-3.886c3.553,5.892,9.618,5.892,11.713,5.892c1.75,0,3.721,0,6.895-0.845h0.739
		c1.263,0,2.451-0.612,3.19-1.635c0.742-1.029,0.943-2.345,0.543-3.55l-0.196-0.592c0.035-0.017,0.277-0.127,0.352-0.159
		c0.025,0,0.051,0.003,0.076,0.008c0.567,1.479,2.001,2.53,3.679,2.53h1.274c3.041,0,6.588-2.009,7.567-6.399
		c0.021-0.034,0.042-0.066,0.062-0.102c0.219-0.357,0.526-0.855,0.737-1.496c0.323-0.53,0.887-1.469,1.107-2.707
		c1.382,0.407,2.629,0.527,3.261,0.527c0.428,0,0.886-0.021,1.398-0.118c0.076,0.041,0.149,0.086,0.227,0.124
		c1.065,0.533,2.526,1.267,4.311,1.267c0.541,0,1.06-0.063,1.546-0.18c0.206,0.372,0.461,0.752,0.779,1.129
		c1.175,1.823,3.233,2.859,5.747,2.859c2.017,0,3.99-0.624,5.869-1.849c2.407-1.354,4.263-1.96,6.003-1.96h1.714
		c3.729,0.811,8.301,2.705,10.534,3.824c0.711,0.354,1.495,0.651,2.581,1.066c0.559,0.213,1.206,0.458,1.966,0.764
		c0.121,0.046,0.245,0.087,0.369,0.125c3.602,1.027,6.779,2.315,7.89,3.027c3.237,8.093,6.608,12.317,10.498,13.111
		c1.129,0.565,2.174,0.565,2.654,0.565c3.05,0,5.562-1.204,7.983-2.716c0.345,0.422,0.779,0.771,1.275,1.023l0.848,0.427
		c0.557,0.283,1.164,0.423,1.77,0.423c0.608,0,1.218-0.14,1.776-0.428l1.015-0.517l1.634-0.928c0.913,0.285,2.021,0.6,3.221,0.6
		c2.755,0,4.964-1.25,6.067-3.453c0.229-0.462,0.396-0.914,0.515-1.346c1.328,1.129,3.102,1.824,4.88,1.824
		c0.375,0,1.112-0.054,1.949-0.42h0.172c0.32,0,0.641-0.038,0.951-0.117c0.988-0.246,1.853-0.426,2.55-0.545
		c0.545,1.263,1.509,3.059,3.04,4.591c2.134,2.142,4.859,3.2,7.059,3.561c-1.221,1.625-1.835,3.624-1.835,5.974
		c0,0.427,0.069,0.85,0.204,1.257c0.536,1.586,1.304,3.411,3.669,4.985c0.133,0.09,0.271,0.169,0.416,0.24
		c0.943,0.476,2.867,1.271,5.16,1.271c0.69,0,1.36-0.051,2.005-0.154c-2.029,1.835-2.788,4.555-1.913,7.281
		c0.959,2.755,3.242,4.33,6.26,4.33h1.285c0.652,0,1.288-0.162,1.855-0.463c0.132-0.021,0.263-0.043,0.392-0.073
		c4.597-1.154,10.98-3.359,13.227-9.019c1.177-2.653,3.058-4.61,3.785-5.118c3.14-1.01,4.555-3.848,5.501-5.752
		c0.176-0.359,0.301-0.741,0.366-1.132c0.052-0.128,0.152-0.354,0.343-0.739c2.451-3.693,1.456-9.33,1.333-9.976
		c-0.036-0.188-0.087-0.364-0.149-0.545c-0.074-0.215-0.163-0.472-0.268-0.749c3.725-0.239,6.568-1.518,8.157-3.628
		c1.338,0.76,2.753,1.208,3.922,1.573l0.397,0.128c0.593,0.284,1.18,0.528,1.741,0.758c0.472,0.192,1.118,0.46,1.189,0.486
		c0.18,0.182,0.377,0.344,0.593,0.487c1.4,0.938,3.102,1.939,5.577,1.939c0.561,0,1.106-0.067,1.654-0.187
		c0.038,0.147,0.082,0.289,0.127,0.423c0.434,1.329,2.027,4.423,7.544,4.423c0.414,0,0.791-0.057,1.125-0.141
		c0.179,0.369,0.383,0.84,0.567,1.382c0.081,0.376,0.225,0.787,0.458,1.206c0.57,3.317,3.37,7.321,9.755,7.321h0.846
		c0.148,0,0.294-0.005,0.438-0.02c3.625-0.407,7.431-1.761,10.633-2.963c0.533,0.612,1.199,1.139,1.979,1.534
		c0.266,0.239,0.561,0.439,0.882,0.604c1.064,0.537,2.523,1.268,4.316,1.268c3.074,0,4.568-2.258,5.457-3.607
		c0.148-0.23,0.31-0.478,0.492-0.734l0.182-0.173c0.202-0.194,0.378-0.41,0.537-0.643c0.805-1.205,1.308-1.785,1.575-2.056
		c2.073,0.304,3.421,0.601,3.828,0.693l1.082,0.369c0.41,0.138,0.836,0.204,1.257,0.204c0.812,0,1.62-0.251,2.299-0.737
		c1.028-0.738,1.64-1.928,1.64-3.199v-4.965h2.853c2.11,0,5.27,0,7.682-2.223c2.276-1.81,3.079-4.36,2.261-7.005
		c0.839-0.783,1.671-0.96,3.653-0.96c0.615,0,1.218-0.145,1.766-0.421c0.204,0.029,0.422,0.082,0.642,0.123
		c0.683,0.139,1.455,0.298,2.272,0.298h3.8c3.25,0,5.694-0.611,7.687-1.918c0.126-0.084,0.245-0.173,0.36-0.272
		c1.82-1.513,7.935-3.661,10.075-3.75c0.766,0.209,1.492,0.317,2.146,0.417c0.525,0.079,1.091,0.16,1.72,0.313
		c0.311,0.075,0.624,0.11,0.939,0.11c0.608,0,1.175,0.092,1.834,0.191c0.534,0.085,1.119,0.18,1.753,0.215
		c1.591,0.447,2.787,0.447,4.054,0.447c0.871,0,2.032,0,3.615-0.441c3.517-0.189,5.123-1.959,5.806-3.373
		c1.263-2.428,0.314-4.98-0.642-6.804c1.368-0.064,2.808-0.536,5.612-1.466c0.079-0.025,0.149-0.048,0.226-0.087
		c1.673-0.662,3.282-0.987,4.91-0.987c0.041,0,0.083,0,0.119,0c0.086,0.229,0.191,0.441,0.319,0.65l0.401,0.675
		c1.238,2.09,2.906,4.896,6.112,6.263c0.559,0.382,1.187,0.656,1.825,0.798c0.164,0.063,0.309,0.126,0.441,0.182
		c0.77,0.33,1.839,0.777,3.504,0.777c2.504,0,4.796-1.319,6.813-3.922c0.406-0.422,0.953-1.008,1.477-1.92
		c0.121-0.12,0.236-0.238,0.351-0.358c1.015-1.063,1.278-1.309,1.896-1.447h0.518c1.049,0,1.979-0.171,2.728-0.309
		c0.124-0.021,0.243-0.045,0.355-0.062c0.037,0.031,0.072,0.07,0.11,0.108c0.224,0.226,0.307,0.312,0.375,0.432
		c0.505,1.365,1.189,2.525,2.05,3.484c-0.669,1.437-0.669,2.836-0.669,3.867c0,0.268,0.028,0.535,0.081,0.792
		c0.81,3.936,4.793,6.929,8.118,8.02c0.065,0.034,0.657,0.329,1.952,2.046c0.223,0.297,0.49,0.562,0.784,0.781
		c0.4,0.304,0.766,0.635,1.128,0.955c1.239,1.101,2.936,2.605,5.45,3.134c2.868,0.721,3.327,0.832,4.793,1.131
		c1.036,0.579,1.982,0.661,2.424,0.661c2.573,0,4.791-1.329,6.174-3.677l0.874-0.88c1.761-1.751,2.135-3.608,2.139-4.859
		c0.001-1.449-0.51-2.912-1.427-4.138c-0.04-0.926-0.261-1.712-0.399-2.203l-0.033-0.116c-0.021-0.169-0.051-0.335-0.093-0.503
		c-0.15-0.588-0.139-0.771-0.138-0.793c0.32-0.285,0.637-0.641,0.928-1.079c1.731-1.768,6.441-6.771,2.068-13.338
		c-0.127-0.181-0.261-0.359-0.419-0.518c-0.125-0.198-0.361-0.66-0.522-0.974l-0.065-0.122c-2.569-6-5.914-9.045-9.938-9.045
		c-0.908,0-1.68,0.127-2.369,0.301c0.034-0.114,0.069-0.236,0.101-0.361c0.095-0.132,0.203-0.268,0.307-0.402
		c0.334-0.445,0.731-0.978,1.078-1.605c1.845-2.572,5.613-8.148,1.762-14.215c-0.813-1.623-1.649-3.287-2.542-4.664
		c-0.145-0.299-0.284-0.598-0.422-0.889c-1.098-2.331-2.578-5.48-5.979-6.411c-0.83-0.412-1.569-1.231-1.569-1.78
		c0-0.195-0.012-0.389-0.04-0.586c-0.78-5.22-4.746-6.798-7.116-7.74c-0.419-0.169-0.857-0.259-1.307-0.278
		c-0.156-0.051-0.436-0.186-0.699-0.313c-0.359-0.25-0.553-0.435-0.664-0.568c0.194-0.232,0.435-0.402,1.105-0.841l0.592-0.399
		c1.379-0.919,3.094-2.059,4.809-4.33c1.375-1.851,1.786-3.488,2.057-4.561c0.014-0.063,0.029-0.134,0.044-0.201h1.521
		c2.208,0,4.001-0.675,5.329-2.011c0.176-0.171,0.359-0.399,0.497-0.6c0.937-1.374,4.859-5.207,6.286-5.618
		c0.123-0.033,0.245-0.075,0.37-0.125c1.727-0.688,4.775-1.483,7.257-1.896c0.193-0.034,0.555-0.138,0.742-0.197
		c0.948-0.308,1.844-0.601,2.447-0.601c0.322,0,0.644-0.041,0.952-0.118c3.764-0.938,17.467-8.693,19.367-14.992
		c0.037-0.127,0.073-0.258,0.098-0.389c0.48-2.486,0.48-4.495,0.48-5.824c0-1.017,0-1.894,0.222-2.542
		c0.023-0.066,0.047-0.13,0.066-0.201c0.821-2.861,1.642-5.336,1.649-5.366c0.133-0.399,0.201-0.818,0.201-1.236V819.7
		c0-0.435-0.075-0.871-0.219-1.291l-0.157-0.439c-0.47-1.338-0.779-2.308-0.984-3.014c0.837-0.457,1.45-0.949,1.935-1.452
		c0.146,0.046,0.296,0.098,0.451,0.145c1.448,0.704,3.151,1.379,5.082,1.494c0.937,0.245,1.582,0.457,2.023,0.624
		c0.037,0.063,0.074,0.131,0.122,0.22c0.182,0.36,0.422,0.691,0.706,0.978c1.463,1.479,3.676,3.714,7.036,3.714
		c0.634,0,2.243,0,3.746-1.279c1.819-1.33,2.616-3.077,3.055-4.039l0.14-0.3c0.22-0.459,0.351-0.948,0.383-1.453
		c0.057-0.115,0.174-0.335,0.438-0.742c0,0,0.602-0.609,0.728-0.734c1.89-1.337,3.265-3.095,3.842-6.799
		c0.234-0.749,0.36-1.382,0.464-1.904c0.072-0.374,0.141-0.751,0.271-1.148c0.978-2.942,1.704-6.127,0.365-9.485
		c-0.207-0.519-0.522-0.986-0.925-1.376l-0.634-0.627c0.022-0.139,0.042-0.318,0.085-0.535c0.036-0.221,0.055-0.364,0.055-0.585
		c0.018-0.158,0.064-0.311,0.101-0.461c0.105-0.449,0.242-1.029,0.289-1.706c0.481-2.466,0.502-4.523-0.668-7.45
		c-0.046-0.124-0.106-0.246-0.167-0.369c-0.261-0.5-0.388-0.771-0.448-0.918c-0.091-0.549-0.298-1.084-0.615-1.553
		c-0.224-0.34-0.407-0.68-0.598-1.012c-0.504-0.906-1.125-2.019-2.204-3.167c-0.815-1.129-2.038-3.411-2.911-5.211
		c-1.16-2.257-2.91-3.404-5.197-3.404h-1.693c-0.62,0-1.225,0.148-1.771,0.425c-0.016,0-0.255-0.003-0.364-0.003
		c-0.05-0.015-0.086-0.022-0.093-0.022c-0.079-0.087-0.372-0.459-0.988-1.88c-2.392-5.364-7.125-6.715-10.257-7.606l-0.298-0.087
		c-0.354-0.1-0.718-0.151-1.088-0.151h-0.846c-1.594,0-2.993,0.517-4.186,1.547c-0.633-0.37-1.237-0.688-1.786-0.963
		c0.323-1.573,0.504-3.376-0.052-5.093c-0.062-0.193-0.139-0.386-0.234-0.569c-0.958-1.896-7.203-11.024-12.087-11.827
		c-1.801-0.362-4.732-0.47-7.462-0.492c-0.031-0.188-0.066-0.376-0.118-0.558c-1.222-4.274-5.413-7.409-7.938-8.965
		c-0.041-0.104-0.102-0.267-0.175-0.499c-0.068-0.209-0.154-0.408-0.255-0.607c-0.291-0.559-0.571-0.984-0.849-1.409
		c-0.141-0.209-0.285-0.414-0.427-0.694c-0.069-0.126-0.14-0.251-0.222-0.376c-1.911-2.878-3.854-4.819-5.511-6.472l-0.49-0.512
		l-0.481-0.485c-2.444-2.47-6.535-6.602-12.504-6.602c-0.819,0-1.725,0-2.907,0.429h-0.044c-0.318,0-0.636,0.036-0.949,0.118
		c-0.815,0.197-1.753,0.437-2.577,0.578c-1.772-3.966-5.872-7.99-10.317-9.227c-0.06-0.869-0.06-1.937-0.06-2.387
		c0-1.328,0-2.694-0.567-4.154c-0.654-2.846-2.514-4.81-4.495-5.958c-0.152-0.42-0.319-0.881-0.493-1.365
		c-1.529-4.214-2.335-6.303-3.032-7.453c-0.66-1.229-1.606-2.02-2.474-2.563c0.188-2.06-0.022-4.285-1.21-6.061
		c-0.869-1.305-2.163-2.197-3.692-2.559c-2.022-0.825-3.031-1.361-3.531-1.681c0.655-0.665,1.617-1.348,2.217-1.696l3.803-2.129
		c1.561-0.876,2.333-2.695,1.884-4.432c-0.41-1.564-1.719-2.695-3.285-2.91c0.28-0.543,0.645-0.996,1.207-1.578H156.195
		C157.094,656.549,158.123,657.496,159.336,658.305z M341.594,924.536c0.016-0.003,0.035-0.012,0.052-0.012
		c1.159-0.294,2.414-0.608,3.63-1.092c1.21,2.213,3.055,2.978,4.349,3.223c-0.003,0.007-0.005,0.016-0.008,0.02
		c-0.097,0.288-0.173,0.576-0.234,0.867l-0.552-0.193c-1.015-0.365-2.275-0.818-3.963-0.818c-2.425,0-4.545,1.215-5.948,3.375
		c-0.262,0.12-0.506,0.274-0.735,0.452c-0.165,0.012-0.388,0.012-0.539,0.012c-0.09,0-0.194,0-0.295,0
		C340.087,928.931,341.08,926.377,341.594,924.536z"/>
</g>
</svg>
