<?xml version="1.0" encoding="utf-8"?>
<!-- Generator: Adobe Illustrator 15.1.0, SVG Export Plug-In . SVG Version: 6.00 Build 0)  -->
<!DOCTYPE svg PUBLIC "-//W3C//DTD SVG 1.1//EN" "http://www.w3.org/Graphics/SVG/1.1/DTD/svg11.dtd">
<svg version="1.1" id="Ebene_1" focusable="false" xmlns="http://www.w3.org/2000/svg" xmlns:xlink="http://www.w3.org/1999/xlink"
	 x="0px" y="0px" width="992.131px" height="992.131px" viewBox="0 0 992.131 992.131" enable-background="new 0 0 992.131 992.131"
	 xml:space="preserve">
<path fill="#F5D821" d="M837.11,434.057h-46.507V294.539C790.603,132.155,658.449,0,496.065,0S201.526,132.155,201.526,294.539
	v139.519H155.02c-51.351,0-93.012,41.661-93.012,93.012v372.049c0,51.351,41.661,93.013,93.012,93.013h682.09
	c51.351,0,93.012-41.662,93.012-93.013V527.069C930.122,475.719,888.461,434.057,837.11,434.057z M635.584,434.057H356.547V294.539
	c0-76.929,62.59-139.519,139.519-139.519s139.519,62.59,139.519,139.519V434.057z"/>
</svg>
