<?xml version="1.0" encoding="utf-8"?>
<!-- Generator: Adobe Illustrator 15.1.0, SVG Export Plug-In . SVG Version: 6.00 Build 0)  -->
<!DOCTYPE svg PUBLIC "-//W3C//DTD SVG 1.1//EN" "http://www.w3.org/Graphics/SVG/1.1/DTD/svg11.dtd">
<svg version="1.1" id="Ebene_1" focusable="false" xmlns="http://www.w3.org/2000/svg" xmlns:xlink="http://www.w3.org/1999/xlink"
	 x="0px" y="0px" width="992.131px" height="992.131px" viewBox="0 0 992.131 992.131" enable-background="new 0 0 992.131 992.131"
	 xml:space="preserve">
<path fill="#02C908" d="M201.526,434.057H46.506C20.821,434.057,0,454.879,0,480.563v465.061c0,25.686,20.821,46.507,46.506,46.507
	h155.021c25.686,0,46.507-20.821,46.507-46.507V480.563C248.033,454.879,227.212,434.057,201.526,434.057z M124.016,914.62
	c-25.685,0-46.506-20.821-46.506-46.506s20.821-46.506,46.506-46.506s46.506,20.821,46.506,46.506S149.701,914.62,124.016,914.62z
	 M744.097,157.834c0,82.192-50.323,128.295-64.482,183.211h197.114c64.715,0,115.097,53.765,115.399,112.58
	c0.162,34.759-14.623,72.179-37.668,95.331l-0.214,0.214c19.06,45.221,15.962,108.586-18.036,153.991
	c16.821,50.178-0.134,111.815-31.744,144.86c8.328,34.101,4.348,63.122-11.914,86.486c-39.549,56.822-137.572,57.623-220.464,57.623
	l-5.513-0.002c-93.568-0.033-170.146-34.101-231.678-61.476c-30.921-13.756-71.351-30.785-102.024-31.35
	c-12.673-0.232-22.833-10.574-22.833-23.249V461.821c0-6.2,2.484-12.151,6.895-16.512c76.762-75.852,109.77-156.157,172.687-219.182
	c28.687-28.74,39.12-72.153,49.206-114.137C547.445,76.14,565.469,0,604.58,0C651.086,0,744.097,15.502,744.097,157.834z"/>
</svg>
