<?xml version="1.0" encoding="utf-8"?>
<!-- Generator: Adobe Illustrator 15.1.0, SVG Export Plug-In . SVG Version: 6.00 Build 0)  -->
<!DOCTYPE svg PUBLIC "-//W3C//DTD SVG 1.1//EN" "http://www.w3.org/Graphics/SVG/1.1/DTD/svg11.dtd">
<svg version="1.1" id="Ebene_1" focusable="false" xmlns="http://www.w3.org/2000/svg" xmlns:xlink="http://www.w3.org/1999/xlink"
	 x="0px" y="0px" width="992.131px" height="992.131px" viewBox="0 0 992.131 992.131" enable-background="new 0 0 992.131 992.131"
	 xml:space="preserve">
<path fill="#D4D4D8" d="M967.327,644.885h-24.804V477.307c0-19.688-7.905-38.6-21.857-52.552L765.801,269.89
	c-13.952-13.952-32.864-21.857-52.552-21.857h-68.364v-74.41c0-41.08-33.329-74.41-74.409-74.41H74.41
	c-41.08,0-74.41,33.33-74.41,74.41v496.065c0,41.08,33.33,74.409,74.41,74.409h24.803c0,82.161,66.659,148.819,148.82,148.819
	c82.16,0,148.819-66.658,148.819-148.819h198.426c0,82.161,66.659,148.819,148.819,148.819c82.161,0,148.819-66.658,148.819-148.819
	h74.41c13.642,0,24.804-11.161,24.804-24.803v-49.606C992.131,656.047,980.969,644.885,967.327,644.885z M248.033,818.508
	c-41.081,0-74.41-33.329-74.41-74.41c0-41.08,33.329-74.409,74.41-74.409c41.08,0,74.409,33.329,74.409,74.409
	C322.442,785.178,289.113,818.508,248.033,818.508z M744.097,818.508c-41.08,0-74.409-33.329-74.409-74.41
	c0-41.08,33.329-74.409,74.409-74.409c41.081,0,74.41,33.329,74.41,74.409C818.508,785.178,785.178,818.508,744.097,818.508z
	 M868.114,496.065H644.885V322.442h68.364l154.865,154.865V496.065z"/>
</svg>
